<?xml version="1.0" standalone="no"?>
<!DOCTYPE svg PUBLIC "-//W3C//DTD SVG 20010904//EN"
 "http://www.w3.org/TR/2001/REC-SVG-20010904/DTD/svg10.dtd">
<svg version="1.0" xmlns="http://www.w3.org/2000/svg"
 width="634.000000pt" height="398.000000pt" viewBox="0 0 634.000000 398.000000"
 preserveAspectRatio="xMidYMid meet">

<g transform="translate(0.000000,398.000000) scale(0.100000,-0.100000)"
fill="#000000" stroke="none">
<path d="M1205 2431 c-34 -4 -44 -8 -32 -13 22 -10 22 -23 -4 -57 -18 -25 -88
-300 -89 -352 0 -27 50 -68 104 -84 35 -11 87 -15 164 -14 61 1 129 2 150 2
20 0 65 -12 100 -27 34 -15 86 -29 115 -32 l52 -6 -30 29 c-17 15 -48 43 -68
60 -35 31 -37 34 -23 55 15 24 76 295 76 340 0 32 -44 72 -98 89 -41 13 -339
20 -417 10z m297 -77 c9 -3 18 -11 21 -18 4 -10 -18 -130 -48 -263 -4 -19 -12
-23 -41 -23 l-36 0 17 -26 c14 -22 15 -28 4 -36 -19 -12 -117 -4 -132 11 -9 9
-4 47 21 169 18 86 39 163 46 170 26 26 85 33 148 16z"/>
<path d="M1865 2407 c14 -22 12 -39 -25 -213 -40 -186 -40 -189 -22 -214 40
-54 83 -65 247 -65 237 0 299 31 328 165 80 360 82 343 -41 348 l-80 3 -10
-48 c-6 -26 -25 -118 -42 -203 -21 -101 -38 -161 -50 -174 -36 -37 -170 -29
-170 10 0 8 11 66 25 130 38 176 33 227 -27 264 -23 14 -51 20 -91 20 l-57 0
15 -23z"/>
<path d="M2755 2416 c11 -8 16 -21 13 -33 -3 -11 -69 -119 -147 -241 -77 -121
-141 -224 -141 -227 0 -8 64 3 122 21 30 10 59 29 82 55 l36 39 95 0 94 0 5
-32 c3 -18 7 -44 8 -58 3 -25 5 -25 101 -28 97 -3 98 -3 92 20 -3 13 -28 124
-55 248 -35 156 -55 229 -67 238 -11 8 -56 12 -137 12 -103 0 -117 -2 -101
-14z m131 -216 l10 -90 -63 0 -63 0 48 90 c26 49 50 90 53 90 3 0 10 -40 15
-90z"/>
<path d="M3294 2411 c18 -19 17 -28 -28 -243 -26 -123 -49 -231 -52 -241 -5
-16 -1 -17 33 -11 95 16 168 91 199 203 28 101 25 103 93 -58 l64 -151 98 0
98 0 11 58 c7 31 30 138 51 237 48 226 48 225 -71 225 -44 0 -80 -3 -80 -7 0
-13 -50 -247 -56 -263 -3 -8 -31 46 -64 125 l-58 140 -128 3 c-127 3 -128 2
-110 -17z"/>
<path d="M3976 2405 c24 -37 45 -45 114 -45 58 0 60 -1 55 -22 -18 -77 -85
-403 -85 -413 0 -21 89 1 135 33 57 40 90 113 122 270 l27 132 103 0 c110 0
118 4 93 51 -10 18 -24 19 -296 19 l-284 0 16 -25z"/>
<path d="M4653 2416 c23 -23 22 -25 -18 -216 -19 -91 -35 -177 -35 -192 0 -35
37 -64 108 -84 80 -24 286 -15 363 15 90 34 96 46 140 248 21 98 38 186 39
195 0 35 -28 48 -108 48 l-77 0 -23 -112 c-64 -311 -63 -308 -93 -324 -39 -20
-112 -18 -138 4 l-20 17 30 140 c34 157 32 190 -10 238 -26 29 -35 32 -102 35
-69 4 -72 3 -56 -12z"/>
<path d="M1580 1559 c0 -6 -13 -29 -29 -52 -15 -23 -33 -52 -40 -64 -11 -21
-10 -22 19 -12 16 6 33 15 36 20 10 17 52 10 59 -11 4 -13 15 -20 31 -20 29 0
28 -6 8 81 -16 69 -16 69 -50 69 -19 0 -34 -5 -34 -11z m40 -65 c0 -8 -9 -14
-20 -14 -17 0 -19 3 -8 19 13 21 28 19 28 -5z"/>
<path d="M1816 1554 c-10 -27 -7 -33 39 -60 48 -28 54 -47 17 -52 -15 -2 -22
2 -22 13 0 20 -51 17 -58 -2 -6 -20 48 -35 97 -29 80 11 87 40 20 78 -21 12
-39 28 -39 35 0 15 36 18 45 3 9 -15 55 -12 55 4 0 19 -23 26 -90 26 -44 0
-59 -4 -64 -16z"/>
<path d="M2006 1543 c3 -16 8 -48 12 -73 6 -36 12 -46 29 -48 17 -2 27 6 42
35 19 38 25 36 33 -12 2 -12 12 -21 25 -23 18 -3 28 9 58 67 19 39 35 73 35
76 0 3 -9 5 -20 5 -13 0 -26 -12 -37 -35 -9 -19 -20 -35 -25 -35 -4 0 -8 16
-8 35 0 31 -3 35 -25 35 -21 0 -29 -8 -44 -42 l-18 -42 -7 29 c-9 36 -24 55
-42 55 -9 0 -12 -9 -8 -27z"/>
<path d="M2273 1558 c0 -7 -5 -37 -12 -67 -6 -30 -9 -56 -6 -60 11 -10 40 15
56 49 l16 34 7 -47 c9 -62 34 -63 70 -4 l26 42 -6 -42 c-6 -41 -5 -43 20 -43
20 0 27 6 32 28 3 15 10 43 15 62 14 56 12 60 -29 60 -34 0 -41 -4 -61 -41
-25 -44 -41 -39 -41 14 0 25 -3 27 -43 27 -28 0 -44 -4 -44 -12z"/>
<path d="M2541 1533 c-20 -84 -20 -83 5 -100 18 -11 37 -14 72 -9 52 7 68 19
77 59 7 26 6 27 -34 27 -23 0 -41 -4 -41 -10 0 -5 5 -10 10 -10 19 0 10 -39
-10 -45 -40 -13 -46 9 -24 88 6 18 54 25 54 7 0 -5 14 -10 30 -10 17 0 30 4
30 8 0 22 -29 32 -92 32 l-67 0 -10 -37z"/>
<path d="M2832 1565 c3 -3 -1 -34 -8 -68 -7 -34 -13 -65 -14 -69 0 -5 29 -8
65 -8 37 0 65 4 65 10 0 6 -16 10 -36 10 -32 0 -36 2 -31 23 4 12 9 41 13 65
l7 42 -33 0 c-19 0 -31 -2 -28 -5z"/>
<path d="M2982 1506 c-7 -35 -12 -68 -12 -75 0 -14 116 -15 125 -1 4 6 -9 10
-31 10 l-37 0 7 43 c4 23 9 52 13 65 4 19 1 22 -24 22 -28 0 -30 -3 -41 -64z"/>
<path d="M3141 1538 c-25 -83 -24 -94 9 -108 47 -20 140 1 140 31 0 15 -47 10
-60 -6 -16 -19 -39 -19 -46 -1 -3 8 0 32 6 55 9 34 15 41 35 41 14 0 25 -4 25
-10 0 -5 14 -10 30 -10 17 0 30 4 30 8 0 22 -29 32 -91 32 -67 0 -67 0 -78
-32z"/>
<path d="M3434 1562 c3 -5 1 -24 -3 -43 -23 -87 -23 -89 -1 -89 12 0 25 10 31
24 8 17 22 26 53 30 74 12 110 52 67 76 -23 12 -154 14 -147 2z m109 -18 c13
-13 -7 -34 -33 -34 -23 0 -27 4 -23 20 5 19 41 28 56 14z"/>
<path d="M3643 1558 c0 -7 -5 -37 -12 -67 -6 -30 -9 -56 -7 -58 10 -10 45 9
51 28 9 27 28 24 53 -11 13 -16 31 -30 42 -30 24 0 25 13 5 44 -14 21 -14 23
10 34 27 12 33 40 13 60 -17 17 -155 16 -155 0z m115 -25 c-2 -12 -14 -19 -36
-21 -34 -3 -35 -2 -26 22 9 23 67 22 62 -1z"/>
<path d="M3851 1526 c-21 -85 -9 -106 61 -106 55 0 81 20 96 73 19 67 8 77
-78 77 l-68 0 -11 -44z m105 -18 c-7 -46 -21 -68 -42 -68 -21 0 -23 12 -12 63
8 41 13 47 35 47 24 0 25 -2 19 -42z"/>
<path d="M4060 1513 c-18 -89 -18 -88 14 -91 41 -5 110 6 130 21 22 17 34 106
15 118 -8 5 -44 9 -81 9 l-67 0 -11 -57z m116 -5 c-8 -49 -21 -68 -47 -68 -26
0 -29 10 -16 63 9 43 13 47 40 47 29 0 29 -1 23 -42z"/>
<path d="M4261 1509 c-8 -39 -9 -65 -3 -71 18 -18 87 -21 123 -5 32 13 36 19
45 71 12 62 10 66 -21 66 -18 0 -24 -10 -36 -62 -12 -53 -18 -64 -37 -66 -22
-3 -23 -1 -20 60 3 57 1 63 -17 66 -18 2 -23 -6 -34 -59z"/>
<path d="M4481 1538 c-25 -83 -24 -94 9 -108 47 -20 140 1 140 31 0 15 -42 10
-61 -7 -10 -9 -26 -14 -35 -10 -13 5 -14 14 -9 49 4 23 9 45 12 50 6 11 53 9
53 -3 0 -5 14 -10 30 -10 17 0 30 4 30 8 0 22 -29 32 -91 32 -67 0 -67 0 -78
-32z"/>
<path d="M4675 1560 c3 -5 15 -10 26 -10 15 0 19 -5 15 -17 -3 -10 -9 -37 -15
-60 -8 -39 -7 -43 10 -43 23 0 45 34 54 83 6 33 11 37 36 37 16 0 29 5 29 10
0 6 -34 10 -81 10 -51 0 -78 -4 -74 -10z"/>
</g>
</svg>
