<?xml version="1.0" standalone="no"?>
<!DOCTYPE svg PUBLIC "-//W3C//DTD SVG 20010904//EN"
 "http://www.w3.org/TR/2001/REC-SVG-20010904/DTD/svg10.dtd">
<svg version="1.0" xmlns="http://www.w3.org/2000/svg"
 width="200.000000pt" height="200.000000pt" viewBox="0 0 200.000000 200.000000"
 preserveAspectRatio="xMidYMid meet">
<metadata>
Created by potrace 1.14, written by Peter Selinger 2001-2017
</metadata>
<g transform="translate(0.000000,200.000000) scale(0.100000,-0.100000)"
fill="#000000" stroke="none">
<path d="M1193 1429 c-44 -8 -98 -32 -108 -49 -3 -5 -36 -10 -72 -10 -80 0
-139 -25 -182 -76 -49 -60 -64 -150 -37 -224 13 -34 12 -36 -31 -83 -35 -37
-43 -52 -38 -70 18 -59 74 -62 130 -7 38 37 44 40 69 30 42 -16 127 -12 171 9
78 36 127 115 127 205 0 37 8 60 31 97 19 31 32 67 35 99 7 74 -16 93 -95 79z
m71 -25 c20 -19 20 -18 0 -83 -12 -42 -31 -69 -91 -132 -42 -43 -73 -79 -69
-79 4 0 5 -4 1 -10 -9 -14 -54 18 -107 76 l-47 50 77 76 c76 75 102 94 151
109 42 12 68 10 85 -7z m-300 -213 c16 -18 16 -19 -14 -23 -35 -5 -47 6 -30
27 16 20 23 19 44 -4z m-20 -118 c9 -23 -135 -169 -158 -160 -30 12 -16 41 51
109 68 69 96 82 107 51z"/>
<path d="M1106 1327 c-30 -30 -32 -44 -10 -75 18 -26 65 -30 89 -6 18 19 17
75 -3 82 -7 2 -10 -2 -6 -11 10 -28 -15 -59 -44 -55 -36 4 -42 40 -11 62 13 8
20 18 17 22 -4 3 -18 -5 -32 -19z"/>
<path d="M1127 1313 c-4 -3 -7 -11 -7 -17 0 -6 5 -5 12 2 6 6 9 14 7 17 -3 3
-9 2 -12 -2z"/>
<path d="M481 764 c-28 -23 -31 -31 -31 -83 0 -48 4 -63 25 -85 31 -34 59 -33
102 4 18 17 29 30 24 30 -5 0 -16 -7 -25 -15 -19 -19 -42 -19 -50 0 -3 8 -12
15 -20 15 -10 0 -15 15 -18 54 -4 70 -1 81 25 94 12 6 17 11 10 11 -6 1 -25
-11 -42 -25z"/>
<path d="M653 769 c-8 -8 -13 -41 -13 -86 0 -61 3 -74 19 -83 31 -16 94 -11
120 9 l24 18 -49 -4 c-69 -6 -78 4 -84 87 -4 57 -7 69 -17 59z"/>
<path d="M745 770 c-4 -6 -11 -8 -16 -5 -5 4 -9 -18 -9 -49 0 -49 2 -56 20
-56 18 0 20 7 20 60 0 60 -3 69 -15 50z"/>
<path d="M862 755 c-11 -14 -24 -40 -29 -58 -7 -31 -8 -31 -14 18 -5 35 -6 27
-3 -28 2 -43 6 -82 9 -88 9 -14 51 -11 65 6 10 13 9 15 -9 15 -18 0 -21 6 -21
40 0 22 7 57 15 77 19 45 14 52 -13 18z"/>
<path d="M1027 762 c-15 -16 -17 -34 -15 -93 3 -71 4 -74 29 -77 14 -2 31 4
39 12 11 14 9 16 -8 16 -20 0 -21 7 -24 81 -3 79 -4 81 -21 61z"/>
<path d="M1122 772 c-7 -5 -10 -16 -6 -25 9 -25 24 -20 24 8 0 28 0 28 -18 17z"/>
<path d="M1181 703 c-1 -76 -3 -83 -21 -83 -12 0 -20 7 -20 18 -1 17 -32 62
-44 62 -10 0 -7 -70 4 -91 6 -10 21 -19 34 -19 35 0 56 30 56 82 0 43 1 45 25
40 23 -4 25 -8 25 -63 0 -58 0 -59 28 -59 39 0 62 28 62 77 0 27 6 46 20 58
20 18 20 17 20 -36 0 -77 18 -99 79 -99 33 0 53 5 64 18 15 16 13 17 -29 13
-64 -5 -74 8 -74 92 0 68 0 70 -19 53 -18 -17 -19 -17 -24 1 -4 14 -5 14 -6
-4 -1 -16 -7 -23 -21 -23 -18 0 -20 -7 -20 -60 0 -57 -1 -60 -25 -60 -24 0
-25 3 -25 60 0 53 -2 60 -20 60 -14 0 -20 7 -20 22 0 20 -1 20 -19 4 -18 -17
-19 -17 -24 1 -3 10 -5 -19 -6 -64z"/>
<path d="M1478 769 c-13 -7 -18 -23 -18 -59 0 -43 3 -50 20 -50 18 0 20 7 20
60 0 33 -1 60 -2 60 -2 0 -11 -5 -20 -11z"/>
<path d="M693 715 c0 -27 2 -38 4 -22 2 15 2 37 0 50 -2 12 -4 0 -4 -28z"/>
<path d="M783 710 c0 -30 2 -43 4 -27 2 15 2 39 0 55 -2 15 -4 2 -4 -28z"/>
<path d="M1070 700 c0 -35 2 -61 4 -59 8 7 10 108 3 115 -4 4 -7 -21 -7 -56z"/>
<path d="M1163 700 c0 -36 2 -50 4 -32 2 17 2 47 0 65 -2 17 -4 3 -4 -33z"/>
<path d="M1293 700 c0 -36 2 -50 4 -32 2 17 2 47 0 65 -2 17 -4 3 -4 -33z"/>
<path d="M1433 710 c0 -30 2 -43 4 -27 2 15 2 39 0 55 -2 15 -4 2 -4 -28z"/>
<path d="M1523 715 c0 -27 2 -38 4 -22 2 15 2 37 0 50 -2 12 -4 0 -4 -28z"/>
<path d="M620 698 c-3 -31 -1 -53 3 -49 5 5 7 30 5 57 l-3 49 -5 -57z"/>
<path d="M530 700 c0 -33 3 -40 20 -40 17 0 20 7 20 40 0 33 -3 40 -20 40 -17
0 -20 -7 -20 -40z"/>
<path d="M917 733 c-14 -13 -6 -33 12 -33 14 0 18 5 14 20 -5 21 -15 25 -26
13z"/>
<path d="M503 695 c0 -22 2 -30 4 -17 2 12 2 30 0 40 -3 9 -5 -1 -4 -23z"/>
<path d="M1100 726 c0 -2 8 -10 18 -17 15 -13 16 -12 3 4 -13 16 -21 21 -21
13z"/>
<path d="M992 668 c-2 -41 -5 -48 -22 -48 -13 0 -20 7 -20 20 0 15 -7 20 -25
20 -27 0 -32 -18 -15 -51 14 -24 52 -25 74 0 12 14 16 31 13 62 l-4 44 -1 -47z"/>
<path d="M881 670 c1 -19 3 -27 6 -17 3 12 15 17 43 17 28 0 40 -5 43 -17 3
-12 5 -10 6 7 1 24 -2 25 -40 22 -28 -3 -44 0 -50 9 -6 9 -8 2 -8 -21z"/>
<path d="M520 644 c0 -9 40 -23 44 -15 3 5 -5 11 -19 13 -14 3 -25 4 -25 2z"/>
<path d="M1468 633 c7 -3 16 -2 19 1 4 3 -2 6 -13 5 -11 0 -14 -3 -6 -6z"/>
</g>
</svg>
